<svg width="350" height="200" xmlns="http://www.w3.org/2000/svg"><rect x="0" y="0" width="184.51935297365324" height="15" style="fill:blue;"/><text x="189.51935297365324" y="10" fill="black">HTML: 92.26%</text> <rect x="0" y="20" width="12.677295521274285" height="15" style="fill:blue;"/><text x="17.677295521274285" y="30" fill="black">C++: 6.34%</text> <rect x="0" y="40" width="1.8206264974912307" height="15" style="fill:blue;"/><text x="6.820626497491231" y="50" fill="black">C: 0.91%</text> <rect x="0" y="60" width="0.4038513000613646" height="15" style="fill:blue;"/><text x="5.403851300061365" y="70" fill="black">R: 0.20%</text> <rect x="0" y="80" width="0.1188787031157402" height="15" style="fill:blue;"/><text x="5.11887870311574" y="90" fill="black">Makefile: 0.06%</text> <rect x="0" y="100" width="0.1029385318917343" height="15" style="fill:blue;"/><text x="5.102938531891734" y="110" fill="black">Shell: 0.05%</text> <rect x="0" y="120" width="0.3206866514601693" height="15" style="fill:blue;"/><text x="5.32068665146017" y="130" fill="black">Python: 0.16%</text> <rect x="0" y="140" width="0.0001177016862532081" height="15" style="fill:blue;"/><text x="5.0001177016862535" y="150" fill="black">Rich Text Format: 0.00%</text> <rect x="0" y="160" width="0.013737468238410145" height="15" style="fill:blue;"/><text x="5.01373746823841" y="170" fill="black">GLSL: 0.01%</text> <rect x="0" y="180" width="0.022514651127577952" height="15" style="fill:blue;"/><text x="5.022514651127578" y="190" fill="black">Processing: 0.01%</text></svg>