<svg width="500" height="280" xmlns="http://www.w3.org/2000/svg"><rect width="100%" height="100%" fill="white"/> <rect x="0" y="0" width="0.6943420421552409" height="15" style="fill:blue;"/><text x="5.694342042155241" y="10" fill="black">Java: 0.35%</text> <rect x="0" y="20" width="0.05548596393840127" height="15" style="fill:blue;"/><text x="5.055485963938401" y="30" fill="black">Shell: 0.03%</text> <rect x="0" y="40" width="174.7933430934947" height="15" style="fill:blue;"/><text x="179.7933430934947" y="50" fill="black">Python: 87.40%</text> <rect x="0" y="60" width="0.40901081988878646" height="15" style="fill:blue;"/><text x="5.4090108198887865" y="70" fill="black">CSS: 0.20%</text> <rect x="0" y="80" width="0.3941642354336134" height="15" style="fill:blue;"/><text x="5.394164235433613" y="90" fill="black">HTML: 0.20%</text> <rect x="0" y="100" width="0.1774292660905521" height="15" style="fill:blue;"/><text x="5.177429266090552" y="110" fill="black">JavaScript: 0.09%</text> <rect x="0" y="120" width="0.11365186218947362" height="15" style="fill:blue;"/><text x="5.1136518621894735" y="130" fill="black">PowerShell: 0.06%</text> <rect x="0" y="140" width="1.8279290927126421" height="15" style="fill:blue;"/><text x="6.827929092712642" y="150" fill="black">C: 0.91%</text> <rect x="0" y="160" width="1.3177601889089472" height="15" style="fill:blue;"/><text x="6.317760188908947" y="170" fill="black">C++: 0.66%</text> <rect x="0" y="180" width="0.05827913491217113" height="15" style="fill:blue;"/><text x="5.058279134912171" y="190" fill="black">Lex: 0.03%</text> <rect x="0" y="200" width="12.653190329689798" height="15" style="fill:blue;"/><text x="17.6531903296898" y="210" fill="black">Rich Text Format: 6.33%</text> <rect x="0" y="220" width="0.012191813844968442" height="15" style="fill:blue;"/><text x="5.012191813844969" y="230" fill="black">Yacc: 0.01%</text> <rect x="0" y="240" width="0.011965340522770887" height="15" style="fill:blue;"/><text x="5.011965340522771" y="250" fill="black">Makefile: 0.01%</text> <rect x="0" y="260" width="7.481256816217906" height="15" style="fill:blue;"/><text x="12.481256816217906" y="270" fill="black">Jupyter Notebook: 3.74%</text></svg>